<svg id="Capa_1" data-name="Capa 1" xmlns="http://www.w3.org/2000/svg" xmlns:xlink="http://www.w3.org/1999/xlink" viewBox="0 0 70.31 70.31"><defs><style>.cls-1{fill:url(#Gradiente_sem_nome_74);}.cls-2{fill:url(#Gradiente_sem_nome_76);}.cls-3{fill:#333;}.cls-4{fill:none;stroke:#333;stroke-miterlimit:10;}</style><linearGradient id="Gradiente_sem_nome_74" x1="6.59" y1="35.16" x2="63.72" y2="35.16" gradientUnits="userSpaceOnUse"><stop offset="0" stop-color="silver"/><stop offset="0.48" stop-color="#d7d9da"/><stop offset="1" stop-color="#edf1f2"/></linearGradient><linearGradient id="Gradiente_sem_nome_76" x1="566.69" y1="380.74" x2="637" y2="380.74" gradientUnits="userSpaceOnUse"><stop offset="0" stop-color="#edf1f2"/><stop offset="0.52" stop-color="#d7d9da"/><stop offset="1" stop-color="silver"/></linearGradient></defs><title>2</title><circle class="cls-1" cx="35.16" cy="35.16" r="28.57"/><path class="cls-2" d="M601.84,345.58A35.16,35.16,0,1,0,637,380.74,35.16,35.16,0,0,0,601.84,345.58Zm0,64.81a29.65,29.65,0,1,1,29.65-29.65A29.66,29.66,0,0,1,601.84,410.39Z" transform="translate(-566.69 -345.58)"/><path class="cls-3" d="M619.28,374.31l-20-12.4a2.6,2.6,0,0,0-3.43.64l-14.24,18.79a2.58,2.58,0,0,0,.51,3.61h0a2.59,2.59,0,0,0,2,.47,2.55,2.55,0,0,0,1.6-1l12.79-16.91,18,11.16a2.58,2.58,0,0,0,2.73-4.38Z" transform="translate(-566.69 -345.58)"/><path class="cls-4" d="M587.67,382.73l3,15.87a1.38,1.38,0,0,0,.94,1,2.16,2.16,0,0,0,1.13.07l23.55-4.39a2.12,2.12,0,0,0,1-.47,1.42,1.42,0,0,0,.51-1.3l-3-15.87-15.88-9.82Z" transform="translate(-566.69 -345.58)"/><rect class="cls-3" x="596.04" y="380.89" width="11.35" height="7.91" transform="translate(-627 -228.84) rotate(-10.56)"/><polygon class="cls-3" points="16.94 21.03 27.44 19.41 18.82 30.92 16.94 21.03"/><path class="cls-3" d="M587.42,399.65a1.34,1.34,0,0,1-.15-1.14.87.87,0,0,0-.08-.81.88.88,0,0,0-.73-.35,1.32,1.32,0,0,1-1-.53,1.29,1.29,0,0,1-.15-1.13.86.86,0,0,0-.08-.81.91.91,0,0,0-.73-.36,1.28,1.28,0,0,1-1-.52,1.32,1.32,0,0,1-.15-1.13.86.86,0,0,0-.08-.81.88.88,0,0,0-.73-.35,1.32,1.32,0,0,1-1-.53,1.28,1.28,0,0,1-.14-1.13.93.93,0,0,0-.08-.81.9.9,0,0,0-.74-.35,1.23,1.23,0,0,1-1.16-1.66.87.87,0,0,0-.08-.81l.34-.23a1.31,1.31,0,0,1,.15,1.13.87.87,0,0,0,.08.81.88.88,0,0,0,.73.35,1.22,1.22,0,0,1,1.16,1.66.83.83,0,0,0,.81,1.16,1.23,1.23,0,0,1,1.17,1.65.87.87,0,0,0,.08.81.91.91,0,0,0,.73.36,1.28,1.28,0,0,1,1,.52,1.32,1.32,0,0,1,.15,1.13.86.86,0,0,0,.08.81.89.89,0,0,0,.73.36,1.23,1.23,0,0,1,1.17,1.66.87.87,0,0,0,.08.81Z" transform="translate(-566.69 -345.58)"/><path class="cls-3" d="M585.89,400.72a1.34,1.34,0,0,1-.15-1.14.83.83,0,0,0-.81-1.16,1.29,1.29,0,0,1-1-.53,1.28,1.28,0,0,1-.15-1.13.87.87,0,0,0-.08-.81.88.88,0,0,0-.73-.35,1.24,1.24,0,0,1-1.17-1.66.87.87,0,0,0-.08-.81.88.88,0,0,0-.73-.35,1.34,1.34,0,0,1-1-.52,1.3,1.3,0,0,1-.14-1.14A.83.83,0,0,0,579,390a1.26,1.26,0,0,1-1-.52,1.29,1.29,0,0,1-.15-1.13.86.86,0,0,0-.08-.81l.34-.24a1.32,1.32,0,0,1,.15,1.13.87.87,0,0,0,.08.81.88.88,0,0,0,.73.35,1.32,1.32,0,0,1,1,.53,1.27,1.27,0,0,1,.14,1.13.93.93,0,0,0,.08.81.9.9,0,0,0,.74.35,1.23,1.23,0,0,1,1.16,1.66.83.83,0,0,0,.81,1.16,1.23,1.23,0,0,1,1.17,1.66A.83.83,0,0,0,585,398a1.29,1.29,0,0,1,1,.53,1.28,1.28,0,0,1,.15,1.13.87.87,0,0,0,.08.81Z" transform="translate(-566.69 -345.58)"/><path class="cls-3" d="M584.22,401.89a1.32,1.32,0,0,1-.15-1.13.89.89,0,0,0-.08-.82.88.88,0,0,0-.73-.35,1.31,1.31,0,0,1-1-.52,1.34,1.34,0,0,1-.15-1.14.87.87,0,0,0-.08-.81.88.88,0,0,0-.73-.35,1.29,1.29,0,0,1-1-.53,1.31,1.31,0,0,1-.15-1.13.87.87,0,0,0-.08-.81.88.88,0,0,0-.73-.35,1.31,1.31,0,0,1-1-.52,1.33,1.33,0,0,1-.14-1.14.83.83,0,0,0-.82-1.16,1.28,1.28,0,0,1-1-.52,1.32,1.32,0,0,1-.15-1.13.87.87,0,0,0-.08-.81l.34-.24a1.32,1.32,0,0,1,.15,1.13.86.86,0,0,0,.08.81.88.88,0,0,0,.73.35,1.32,1.32,0,0,1,1,.53,1.28,1.28,0,0,1,.14,1.13.93.93,0,0,0,.08.81.9.9,0,0,0,.74.35,1.23,1.23,0,0,1,1.16,1.66.83.83,0,0,0,.81,1.16,1.31,1.31,0,0,1,1,.52,1.34,1.34,0,0,1,.15,1.14.87.87,0,0,0,.08.81.88.88,0,0,0,.73.35,1.32,1.32,0,0,1,1,.53,1.28,1.28,0,0,1,.15,1.13.87.87,0,0,0,.08.81Z" transform="translate(-566.69 -345.58)"/><path class="cls-3" d="M624.44,370.27A1.55,1.55,0,0,1,624,369a1,1,0,0,0-.32-.9,1,1,0,0,0-.94-.2,1.45,1.45,0,0,1-1.79-1.57,1,1,0,0,0-1.26-1.1,1.54,1.54,0,0,1-1.31-.31,1.59,1.59,0,0,1-.49-1.26,1,1,0,0,0-1.25-1.1,1.54,1.54,0,0,1-1.31-.31,1.52,1.52,0,0,1-.48-1.25,1,1,0,0,0-.32-.9,1,1,0,0,0-.94-.2,1.52,1.52,0,0,1-1.3-.31,1.55,1.55,0,0,1-.49-1.26,1.06,1.06,0,0,0-.32-.9l.32-.37a1.55,1.55,0,0,1,.49,1.26,1,1,0,0,0,.32.9,1.08,1.08,0,0,0,.93.2,1.54,1.54,0,0,1,1.31.31,1.51,1.51,0,0,1,.48,1.25,1,1,0,0,0,.32.9,1,1,0,0,0,.94.2,1.55,1.55,0,0,1,1.31.31,1.53,1.53,0,0,1,.48,1.26,1.06,1.06,0,0,0,.32.9,1.1,1.1,0,0,0,.94.2,1.54,1.54,0,0,1,1.31.31,1.52,1.52,0,0,1,.48,1.26,1,1,0,0,0,1.26,1.09,1.58,1.58,0,0,1,1.31.32,1.54,1.54,0,0,1,.49,1.26,1.06,1.06,0,0,0,.32.9Z" transform="translate(-566.69 -345.58)"/><path class="cls-3" d="M623,371.92a1.57,1.57,0,0,1-.49-1.26,1,1,0,0,0-.32-.9,1,1,0,0,0-.93-.2,1.54,1.54,0,0,1-1.31-.31,1.52,1.52,0,0,1-.49-1.26,1,1,0,0,0-.32-.9,1.1,1.1,0,0,0-.94-.2,1.54,1.54,0,0,1-1.31-.31,1.52,1.52,0,0,1-.48-1.26,1,1,0,0,0-1.26-1.09,1.44,1.44,0,0,1-1.79-1.57,1,1,0,0,0-.32-.9,1.08,1.08,0,0,0-.93-.2,1.51,1.51,0,0,1-1.31-.31,1.56,1.56,0,0,1-.49-1.25,1,1,0,0,0-.31-.9l.32-.37a1.51,1.51,0,0,1,.48,1.25,1.08,1.08,0,0,0,.32.91,1.06,1.06,0,0,0,.94.19,1.52,1.52,0,0,1,1.3.31,1.55,1.55,0,0,1,.49,1.26,1.05,1.05,0,0,0,.31.9,1.07,1.07,0,0,0,.94.19,1.45,1.45,0,0,1,1.79,1.57,1,1,0,0,0,1.26,1.1,1.45,1.45,0,0,1,1.8,1.57,1,1,0,0,0,1.25,1.1,1.54,1.54,0,0,1,1.31.31,1.52,1.52,0,0,1,.49,1.26,1,1,0,0,0,.32.9Z" transform="translate(-566.69 -345.58)"/><path class="cls-3" d="M621.41,373.73a1.54,1.54,0,0,1-.48-1.26,1,1,0,0,0-1.26-1.1,1.51,1.51,0,0,1-1.31-.32,1.49,1.49,0,0,1-.49-1.25,1,1,0,0,0-.32-.9,1,1,0,0,0-.94-.2,1.44,1.44,0,0,1-1.79-1.57,1,1,0,0,0-.32-.9,1.1,1.1,0,0,0-.94-.2,1.45,1.45,0,0,1-1.79-1.56,1,1,0,0,0-1.25-1.1,1.44,1.44,0,0,1-1.79-1.57,1.07,1.07,0,0,0-.32-.9l.32-.36a1.51,1.51,0,0,1,.48,1.25,1,1,0,0,0,.32.9,1,1,0,0,0,.94.2,1.45,1.45,0,0,1,1.79,1.56,1.08,1.08,0,0,0,.32.91,1,1,0,0,0,.93.19,1.54,1.54,0,0,1,1.31.31,1.59,1.59,0,0,1,.49,1.26,1,1,0,0,0,.31.9,1.11,1.11,0,0,0,.94.2,1.45,1.45,0,0,1,1.8,1.57,1,1,0,0,0,.32.9,1.06,1.06,0,0,0,.94.19,1.57,1.57,0,0,1,1.3.32,1.51,1.51,0,0,1,.49,1.26,1.06,1.06,0,0,0,.32.9Z" transform="translate(-566.69 -345.58)"/></svg>