<svg id="Capa_1" data-name="Capa 1" xmlns="http://www.w3.org/2000/svg" xmlns:xlink="http://www.w3.org/1999/xlink" viewBox="0 0 48.88 48.88"><defs><style>.cls-1{fill:#333;}.cls-2{fill:url(#Gradiente_sem_nome_76);}.cls-3{fill:url(#Gradiente_sem_nome_76-2);}</style><linearGradient id="Gradiente_sem_nome_76" x1="4.58" y1="24.44" x2="44.3" y2="24.44" gradientUnits="userSpaceOnUse"><stop offset="0" stop-color="#edf1f2"/><stop offset="0.52" stop-color="#d7d9da"/><stop offset="1" stop-color="silver"/></linearGradient><linearGradient id="Gradiente_sem_nome_76-2" x1="465.69" y1="385.02" x2="514.57" y2="385.02" xlink:href="#Gradiente_sem_nome_76"/></defs><title>2</title><circle class="cls-1" cx="24.44" cy="24.44" r="22.91"/><circle class="cls-2" cx="24.44" cy="24.44" r="19.86"/><path class="cls-1" d="M480.13,378.05v.61H478v-.61c0-.83-.35-1.24-1-1.24s-1.05.41-1.05,1.24v10.4c0,.82.35,1.24,1.05,1.24s1-.42,1-1.24v-.62h2.1v.62q0,3.71-3.14,3.71c-2.1,0-3.14-1.24-3.14-3.71v-10.4c0-2.48,1-3.72,3.14-3.72S480.13,375.57,480.13,378.05Z" transform="translate(-465.69 -360.58)"/><path class="cls-1" d="M481.17,391.92V374.58h3.14q3.13,0,3.13,3.71v9.91q0,3.72-3.13,3.72Zm2.09-14.86v12.38h1.05c.69,0,1-.41,1-1.24v-9.91c0-.82-.35-1.23-1-1.23Z" transform="translate(-465.69 -360.58)"/><path class="cls-1" d="M490.91,374.58v17.34h-2.09V374.58Z" transform="translate(-465.69 -360.58)"/><path class="cls-1" d="M492.72,391.92l1.68-17.34H498l1.68,17.34h-2.09l-.42-3.72h-1.89l-.42,3.72Zm3.46-14.74-.74,8.54h1.47Z" transform="translate(-465.69 -360.58)"/><path class="cls-1" d="M507,378.05v.61H504.9v-.61c0-.83-.35-1.24-1-1.24s-1.05.41-1.05,1.24v10.4c0,.82.35,1.24,1.05,1.24s1-.42,1-1.24v-.62H507v.62q0,3.71-3.14,3.71t-3.14-3.71v-10.4q0-3.72,3.14-3.72T507,378.05Z" transform="translate(-465.69 -360.58)"/><path class="cls-3" d="M490.13,360.58A24.44,24.44,0,1,0,514.57,385,24.44,24.44,0,0,0,490.13,360.58Zm0,45.05A20.61,20.61,0,1,1,510.74,385,20.61,20.61,0,0,1,490.13,405.63Z" transform="translate(-465.69 -360.58)"/></svg>