<svg id="Capa_1" data-name="Capa 1" xmlns="http://www.w3.org/2000/svg" xmlns:xlink="http://www.w3.org/1999/xlink" viewBox="0 0 48.88 48.88"><defs><style>.cls-1{fill:#333;}.cls-2{fill:url(#Gradiente_sem_nome_76);}.cls-3{fill:url(#Gradiente_sem_nome_74);}</style><linearGradient id="Gradiente_sem_nome_76" x1="573.07" y1="384.94" x2="621.95" y2="384.94" gradientUnits="userSpaceOnUse"><stop offset="0" stop-color="#edf1f2"/><stop offset="0.52" stop-color="#d7d9da"/><stop offset="1" stop-color="silver"/></linearGradient><linearGradient id="Gradiente_sem_nome_74" x1="577.65" y1="384.94" x2="617.37" y2="384.94" gradientUnits="userSpaceOnUse"><stop offset="0" stop-color="silver"/><stop offset="0.48" stop-color="#d7d9da"/><stop offset="1" stop-color="#edf1f2"/></linearGradient></defs><title>6</title><circle class="cls-1" cx="24.44" cy="24.99" r="22.91"/><path class="cls-2" d="M597.51,360.5A24.44,24.44,0,1,0,622,384.94,24.44,24.44,0,0,0,597.51,360.5Zm0,45.05a20.61,20.61,0,1,1,20.61-20.61A20.61,20.61,0,0,1,597.51,405.55Z" transform="translate(-573.07 -360.5)"/><path class="cls-3" d="M597.51,365.08a19.86,19.86,0,1,0,19.86,19.86A19.86,19.86,0,0,0,597.51,365.08Zm12.73,30.56h-3.31V381.05L597,387.36l-9.93-6.31v14.59h-3.31V375.78h2L597,382.71l11.28-6.93h2Z" transform="translate(-573.07 -360.5)"/></svg>