<svg id="Capa_1" data-name="Capa 1" xmlns="http://www.w3.org/2000/svg" xmlns:xlink="http://www.w3.org/1999/xlink" viewBox="0 0 48.88 48.88"><defs><style>.cls-1{fill:#f26722;}.cls-2{fill:url(#Gradiente_sem_nome_76);}.cls-3{fill:url(#Gradiente_sem_nome_74);}</style><linearGradient id="Gradiente_sem_nome_76" x1="601.59" y1="384.94" x2="650.47" y2="384.94" gradientUnits="userSpaceOnUse"><stop offset="0" stop-color="#edf1f2"/><stop offset="0.52" stop-color="#d7d9da"/><stop offset="1" stop-color="silver"/></linearGradient><linearGradient id="Gradiente_sem_nome_74" x1="606.18" y1="384.94" x2="645.88" y2="384.94" gradientUnits="userSpaceOnUse"><stop offset="0" stop-color="silver"/><stop offset="0.48" stop-color="#d7d9da"/><stop offset="1" stop-color="#edf1f2"/></linearGradient></defs><title>7_h</title><circle class="cls-1" cx="24.44" cy="24.99" r="22.91"/><g id="Glyph"><path class="cls-2" d="M626,360.5a24.44,24.44,0,1,0,24.44,24.44A24.44,24.44,0,0,0,626,360.5Zm0,45.05a20.61,20.61,0,1,1,20.61-20.61A20.61,20.61,0,0,1,626,405.55Z" transform="translate(-601.59 -360.5)"/><path class="cls-3" d="M626,365.09a19.85,19.85,0,1,0,19.85,19.85A19.88,19.88,0,0,0,626,365.09Zm5.33,19.85h-3.42v12.41h-5.13V384.94h-2.56v-4.27h2.56V378.1c0-3.49,1.45-5.57,5.56-5.57h3.42v4.28h-2.14c-1.6,0-1.71.6-1.71,1.71v2.15h3.87Z" transform="translate(-601.59 -360.5)"/></g></svg>