<svg id="Capa_1" data-name="Capa 1" xmlns="http://www.w3.org/2000/svg" xmlns:xlink="http://www.w3.org/1999/xlink" viewBox="0 0 48.88 48.88"><defs><style>.cls-1{fill:#333;}.cls-2{fill:url(#Gradiente_sem_nome_76);}.cls-3{fill:url(#Gradiente_sem_nome_74);}.cls-4{fill:url(#Gradiente_sem_nome_74-2);}.cls-5{fill:url(#Gradiente_sem_nome_74-3);}.cls-6{fill:url(#Gradiente_sem_nome_76-2);}</style><linearGradient id="Gradiente_sem_nome_76" x1="580.48" y1="384.19" x2="582.42" y2="384.19" gradientUnits="userSpaceOnUse"><stop offset="0" stop-color="#edf1f2"/><stop offset="0.52" stop-color="#d7d9da"/><stop offset="1" stop-color="silver"/></linearGradient><linearGradient id="Gradiente_sem_nome_74" x1="570.2" y1="390.03" x2="583.18" y2="390.03" gradientUnits="userSpaceOnUse"><stop offset="0" stop-color="silver"/><stop offset="0.48" stop-color="#d7d9da"/><stop offset="1" stop-color="#edf1f2"/></linearGradient><linearGradient id="Gradiente_sem_nome_74-2" x1="574.53" y1="375.81" x2="577.01" y2="375.81" xlink:href="#Gradiente_sem_nome_74"/><linearGradient id="Gradiente_sem_nome_74-3" x1="550.66" y1="384.94" x2="590.38" y2="384.94" xlink:href="#Gradiente_sem_nome_74"/><linearGradient id="Gradiente_sem_nome_76-2" x1="546.08" y1="384.94" x2="594.96" y2="384.94" xlink:href="#Gradiente_sem_nome_76"/></defs><title>5</title><circle class="cls-1" cx="24.44" cy="24.99" r="22.91"/><path class="cls-2" d="M581,385.17h1.4l-1.94-1.95v1.4A.55.55,0,0,0,581,385.17Z" transform="translate(-546.08 -360.5)"/><path class="cls-3" d="M579.4,384.62v-2.16h-8.66a.54.54,0,0,0-.54.54v14.07a.54.54,0,0,0,.54.54h11.9a.54.54,0,0,0,.54-.54V386.25H581A1.62,1.62,0,0,1,579.4,384.62Z" transform="translate(-546.08 -360.5)"/><path class="cls-4" d="M575.07,377.05H577l-2.48-2.48v1.94A.54.54,0,0,0,575.07,377.05Z" transform="translate(-546.08 -360.5)"/><path class="cls-5" d="M570.52,365.08a19.86,19.86,0,1,0,19.86,19.86A19.86,19.86,0,0,0,570.52,365.08Zm-3,33.61h-7.58a1.63,1.63,0,0,1-1.62-1.62V374.35a1.63,1.63,0,0,1,1.62-1.63H574a.55.55,0,0,1,.38.16l4.33,4.33a.55.55,0,0,1,.16.38v2.17h-1.09v-1.63h-2.7a1.61,1.61,0,0,1-1.62-1.62V373.8H559.92a.55.55,0,0,0-.54.55v22.72a.54.54,0,0,0,.54.54h7.58ZM562.09,390V389H567V390ZM567,392.2v1.08h-4.86V392.2Zm.55-5.41h-5.41v-1.08h5.41Zm0-3.25h-3.25v-1.08h3.25Zm16.77,13.53a1.63,1.63,0,0,1-1.63,1.62h-11.9a1.63,1.63,0,0,1-1.62-1.62V383a1.63,1.63,0,0,1,1.62-1.62h9.2a.51.51,0,0,1,.38.16l3.79,3.78a.55.55,0,0,1,.16.39Z" transform="translate(-546.08 -360.5)"/><path class="cls-6" d="M570.52,360.5A24.44,24.44,0,1,0,595,384.94,24.44,24.44,0,0,0,570.52,360.5Zm0,45.05a20.61,20.61,0,1,1,20.61-20.61A20.6,20.6,0,0,1,570.52,405.55Z" transform="translate(-546.08 -360.5)"/></svg>