<svg id="Capa_1" data-name="Capa 1" xmlns="http://www.w3.org/2000/svg" xmlns:xlink="http://www.w3.org/1999/xlink" viewBox="0 0 48.88 48.88"><defs><style>.cls-1{fill:#f26722;}.cls-2{fill:url(#Gradiente_sem_nome_76);}.cls-3{fill:url(#Gradiente_sem_nome_76-2);}.cls-4{fill:url(#Gradiente_sem_nome_76-3);}.cls-5{fill:url(#Gradiente_sem_nome_76-4);}</style><linearGradient id="Gradiente_sem_nome_76" x1="456.55" y1="379.18" x2="474.73" y2="379.18" gradientUnits="userSpaceOnUse"><stop offset="0" stop-color="#edf1f2"/><stop offset="0.52" stop-color="#d7d9da"/><stop offset="1" stop-color="silver"/></linearGradient><linearGradient id="Gradiente_sem_nome_76-2" x1="21.73" y1="32.14" x2="26.05" y2="32.14" xlink:href="#Gradiente_sem_nome_76"/><linearGradient id="Gradiente_sem_nome_76-3" x1="441.75" y1="380.47" x2="490.63" y2="380.47" xlink:href="#Gradiente_sem_nome_76"/><linearGradient id="Gradiente_sem_nome_76-4" x1="446.33" y1="380.47" x2="486.05" y2="380.47" xlink:href="#Gradiente_sem_nome_76"/></defs><title>1_h</title><circle class="cls-1" cx="24.44" cy="24.99" r="22.91"/><path class="cls-2" d="M456.55,375.5v16.44h4.65v-8.68a1.14,1.14,0,0,1,1.14-1.14h6.59a1.14,1.14,0,0,1,1.14,1.14v8.68h4.66V375.5l-9.1-9.09Z" transform="translate(-441.75 -356.03)"/><rect class="cls-3" x="21.73" y="28.37" width="4.32" height="7.55"/><path class="cls-4" d="M466.19,356a24.44,24.44,0,1,0,24.44,24.44A24.44,24.44,0,0,0,466.19,356Zm0,45.05a20.61,20.61,0,1,1,20.61-20.61A20.61,20.61,0,0,1,466.19,401.08Z" transform="translate(-441.75 -356.03)"/><path class="cls-5" d="M466.19,360.61a19.86,19.86,0,1,0,19.86,19.86A19.86,19.86,0,0,0,466.19,360.61Zm13.44,19.32a1.14,1.14,0,0,1-.81-.33L477,377.78v15.3a1.14,1.14,0,0,1-1.14,1.14H455.41a1.14,1.14,0,0,1-1.14-1.14v-15.3l-1.82,1.82a1.14,1.14,0,0,1-1.61-1.61l3.76-3.76h0L464.83,364a1.15,1.15,0,0,1,1.61,0l10.22,10.22v0l3.76,3.75a1.14,1.14,0,0,1-.8,1.94Z" transform="translate(-441.75 -356.03)"/></svg>