<svg id="Capa_1" data-name="Capa 1" xmlns="http://www.w3.org/2000/svg" xmlns:xlink="http://www.w3.org/1999/xlink" viewBox="0 0 48.88 48.88"><defs><style>.cls-1{fill:#f26722;}.cls-2{fill:url(#Gradiente_sem_nome_74);}.cls-3{fill:url(#Gradiente_sem_nome_74-2);}.cls-4{fill:url(#Gradiente_sem_nome_74-3);}.cls-5{fill:url(#Gradiente_sem_nome_74-4);}.cls-6{fill:url(#Gradiente_sem_nome_74-5);}.cls-7{fill:url(#Gradiente_sem_nome_76);}.cls-8{fill:url(#Gradiente_sem_nome_74-6);}</style><linearGradient id="Gradiente_sem_nome_74" x1="15.66" y1="24.16" x2="16.8" y2="24.16" gradientUnits="userSpaceOnUse"><stop offset="0" stop-color="silver"/><stop offset="0.48" stop-color="#d7d9da"/><stop offset="1" stop-color="#edf1f2"/></linearGradient><linearGradient id="Gradiente_sem_nome_74-2" x1="13.37" y1="12.98" x2="16.8" y2="12.98" xlink:href="#Gradiente_sem_nome_74"/><linearGradient id="Gradiente_sem_nome_74-3" x1="13.37" y1="24.16" x2="14.51" y2="24.16" xlink:href="#Gradiente_sem_nome_74"/><linearGradient id="Gradiente_sem_nome_74-4" x1="13.78" y1="35.33" x2="16.39" y2="35.33" xlink:href="#Gradiente_sem_nome_74"/><linearGradient id="Gradiente_sem_nome_74-5" x1="522.8" y1="374.46" x2="525.43" y2="374.46" xlink:href="#Gradiente_sem_nome_74"/><linearGradient id="Gradiente_sem_nome_76" x1="491.09" y1="384.94" x2="539.98" y2="384.94" gradientUnits="userSpaceOnUse"><stop offset="0" stop-color="#edf1f2"/><stop offset="0.52" stop-color="#d7d9da"/><stop offset="1" stop-color="silver"/></linearGradient><linearGradient id="Gradiente_sem_nome_74-6" x1="495.68" y1="384.94" x2="535.39" y2="384.94" xlink:href="#Gradiente_sem_nome_74"/></defs><title>3_h</title><circle class="cls-1" cx="24.44" cy="24.99" r="22.91"/><rect class="cls-2" x="15.66" y="15.28" width="1.15" height="17.76"/><rect class="cls-3" x="13.37" y="11.84" width="3.44" height="2.29"/><rect class="cls-4" x="13.37" y="15.28" width="1.15" height="17.76"/><polygon class="cls-5" points="15.09 36.48 16.39 34.19 13.78 34.19 15.09 36.48"/><path class="cls-6" d="M522.8,375.21a.57.57,0,0,0,.57.57h2.06l-2.63-2.63Z" transform="translate(-491.09 -360.5)"/><path class="cls-7" d="M515.54,360.5A24.44,24.44,0,1,0,540,384.94,24.45,24.45,0,0,0,515.54,360.5Zm0,45.05a20.61,20.61,0,1,1,20.61-20.61A20.61,20.61,0,0,1,515.54,405.55Z" transform="translate(-491.09 -360.5)"/><path class="cls-8" d="M515.54,365.08a19.86,19.86,0,1,0,19.85,19.86A19.86,19.86,0,0,0,515.54,365.08Zm-8.86,33.33a.57.57,0,0,1-1,0l-2.29-4a.6.6,0,0,1-.08-.29V372.34a1.15,1.15,0,0,1,1.15-1.14h3.44a1.14,1.14,0,0,1,1.14,1.14v21.77a.5.5,0,0,1-.07.29Zm20.7-1.43a1.72,1.72,0,0,1-1.72,1.72H509v-1.15h16.62a.56.56,0,0,0,.57-.57V376.92h-2.86a1.71,1.71,0,0,1-1.72-1.71v-2.87H510.76V371.2h11.46a.53.53,0,0,1,.41.16l4.58,4.59a.54.54,0,0,1,.17.4Z" transform="translate(-491.09 -360.5)"/></svg>