<svg id="Capa_1" data-name="Capa 1" xmlns="http://www.w3.org/2000/svg" xmlns:xlink="http://www.w3.org/1999/xlink" viewBox="0 0 70.31 70.31"><defs><style>.cls-1{fill:url(#Gradiente_sem_nome_74);}.cls-2{fill:#f26722;}.cls-3{fill:url(#Gradiente_sem_nome_76);}</style><linearGradient id="Gradiente_sem_nome_74" x1="6.59" y1="35.16" x2="63.72" y2="35.16" gradientUnits="userSpaceOnUse"><stop offset="0" stop-color="silver"/><stop offset="0.48" stop-color="#d7d9da"/><stop offset="1" stop-color="#edf1f2"/></linearGradient><linearGradient id="Gradiente_sem_nome_76" x1="518.69" y1="383.74" x2="589" y2="383.74" gradientUnits="userSpaceOnUse"><stop offset="0" stop-color="#edf1f2"/><stop offset="0.52" stop-color="#d7d9da"/><stop offset="1" stop-color="silver"/></linearGradient></defs><title>1_h</title><circle class="cls-1" cx="35.16" cy="35.16" r="28.57"/><path class="cls-2" d="M569.63,395.91a2.76,2.76,0,0,1-2.16-1.13,1.78,1.78,0,0,0-3,0,2.62,2.62,0,0,1-4.31,0,1.77,1.77,0,0,0-3,0,2.79,2.79,0,0,1-2.16,1.13,2.75,2.75,0,0,1-2.15-1.13,1.77,1.77,0,0,0-3,0,2.61,2.61,0,0,1-4.3,0,1.77,1.77,0,0,0-3,0,2.75,2.75,0,0,1-2.15,1.13,2.79,2.79,0,0,1-2.15-1.13,1.93,1.93,0,0,0-1.51-.85v-.88a2.73,2.73,0,0,1,2.15,1.14,1.78,1.78,0,0,0,3,0,2.6,2.6,0,0,1,4.3,0,1.77,1.77,0,0,0,3,0,2.6,2.6,0,0,1,4.3,0,1.78,1.78,0,0,0,3,0,2.77,2.77,0,0,1,2.16-1.14,2.73,2.73,0,0,1,2.15,1.14,1.78,1.78,0,0,0,3,0,2.62,2.62,0,0,1,4.31,0,1.91,1.91,0,0,0,1.52.85Z" transform="translate(-518.69 -348.58)"/><path class="cls-2" d="M569.63,399.89a2.76,2.76,0,0,1-2.16-1.13,1.78,1.78,0,0,0-3,0,2.62,2.62,0,0,1-4.31,0,1.77,1.77,0,0,0-3,0,2.79,2.79,0,0,1-2.16,1.13,2.75,2.75,0,0,1-2.15-1.13,1.77,1.77,0,0,0-3,0,2.6,2.6,0,0,1-4.3,0,1.77,1.77,0,0,0-3,0,2.75,2.75,0,0,1-2.15,1.13,2.79,2.79,0,0,1-2.15-1.13,1.91,1.91,0,0,0-1.51-.85V397a2.75,2.75,0,0,1,2.15,1.13,1.77,1.77,0,0,0,3,0A2.79,2.79,0,0,1,544,397a2.72,2.72,0,0,1,2.15,1.13,1.77,1.77,0,0,0,3,0,2.75,2.75,0,0,1,2.15-1.13,2.72,2.72,0,0,1,2.15,1.13,1.77,1.77,0,0,0,3,0,2.76,2.76,0,0,1,2.16-1.13,2.72,2.72,0,0,1,2.15,1.13,1.78,1.78,0,0,0,3,0,2.62,2.62,0,0,1,4.31,0,1.94,1.94,0,0,0,1.52.85Z" transform="translate(-518.69 -348.58)"/><path class="cls-2" d="M569.63,404.23a2.76,2.76,0,0,1-2.16-1.13,1.78,1.78,0,0,0-3,0,2.62,2.62,0,0,1-4.31,0,1.77,1.77,0,0,0-3,0,2.79,2.79,0,0,1-2.16,1.13,2.75,2.75,0,0,1-2.15-1.13,1.77,1.77,0,0,0-3,0,2.61,2.61,0,0,1-4.3,0,1.77,1.77,0,0,0-3,0,2.75,2.75,0,0,1-2.15,1.13,2.79,2.79,0,0,1-2.15-1.13,1.91,1.91,0,0,0-1.51-.85v-.88a2.72,2.72,0,0,1,2.15,1.13,1.77,1.77,0,0,0,3,0,2.76,2.76,0,0,1,2.15-1.13,2.72,2.72,0,0,1,2.15,1.13,1.77,1.77,0,0,0,3,0,2.61,2.61,0,0,1,4.3,0,1.77,1.77,0,0,0,3,0,2.76,2.76,0,0,1,2.16-1.13,2.72,2.72,0,0,1,2.15,1.13,1.78,1.78,0,0,0,3,0,2.62,2.62,0,0,1,4.31,0,1.94,1.94,0,0,0,1.52.85Z" transform="translate(-518.69 -348.58)"/><path class="cls-2" d="M567.46,371.06c0-.17,0-.32,0-.48a5.46,5.46,0,0,0-8.32-4.64,6.5,6.5,0,0,0-12.79.21,5.3,5.3,0,0,0-1.76-.31,5.46,5.46,0,0,0-5.45,5.45,1.34,1.34,0,0,0,0,.2c-1.53.42-3.71,1.3-3.71,4.41a4.59,4.59,0,0,0,4.55,4.42l.8-1.23h-.47a3.43,3.43,0,0,1-3.61-3.2c0-2.1,1.15-2.79,3.27-3.31l.47-.18,0-.49,0-.25c0-.13,0-.25,0-.38a4.15,4.15,0,0,1,6.21-3.63l1,.54,0-1.1a5.11,5.11,0,0,1,4.95-5.13h.27a5.12,5.12,0,0,1,5.18,4.78c0,.1,0,.19,0,.44l-.05,1.63,1.14-1.16a4.14,4.14,0,0,1,3-1.26,4.19,4.19,0,0,1,4.18,4.19,4.58,4.58,0,0,1-.08.83l-.13.64.64.11a3.38,3.38,0,0,1,2.9,3.08A3.9,3.9,0,0,1,567,379l.42,1.18a5.13,5.13,0,0,0,3.43-5A4.58,4.58,0,0,0,567.46,371.06Z" transform="translate(-518.69 -348.58)"/><path class="cls-2" d="M546.8,385.26h0c-2.1-2.82-2-7.68-2.06-6.12a11.75,11.75,0,0,1-1.86,6.12h0a1.68,1.68,0,0,0-.21.83,2.18,2.18,0,0,0,4.34,0A1.68,1.68,0,0,0,546.8,385.26Z" transform="translate(-518.69 -348.58)"/><path class="cls-2" d="M553.49,381.43h0c-1.84-2.46-1.72-6.7-1.81-5.34a10.32,10.32,0,0,1-1.62,5.34h0a1.53,1.53,0,0,0-.19.73,1.91,1.91,0,0,0,3.8,0A1.64,1.64,0,0,0,553.49,381.43Z" transform="translate(-518.69 -348.58)"/><path class="cls-2" d="M558.66,386.37h0c-1.68-2.25-1.57-6.13-1.65-4.89a9.41,9.41,0,0,1-1.49,4.89h0a1.49,1.49,0,0,0-.16.66,1.74,1.74,0,0,0,3.47,0A1.38,1.38,0,0,0,558.66,386.37Z" transform="translate(-518.69 -348.58)"/><path class="cls-2" d="M560.75,379.75h0c-1.06-1.41-1-3.86-1-3.07a5.89,5.89,0,0,1-.93,3.07h0a.88.88,0,0,0-.11.42,1.1,1.1,0,0,0,2.19,0A.88.88,0,0,0,560.75,379.75Z" transform="translate(-518.69 -348.58)"/><path class="cls-3" d="M553.84,348.58A35.16,35.16,0,1,0,589,383.74,35.16,35.16,0,0,0,553.84,348.58Zm0,64.81a29.65,29.65,0,1,1,29.65-29.65A29.66,29.66,0,0,1,553.84,413.39Z" transform="translate(-518.69 -348.58)"/></svg>