<svg id="Capa_1" data-name="Capa 1" xmlns="http://www.w3.org/2000/svg" xmlns:xlink="http://www.w3.org/1999/xlink" viewBox="0 0 48.88 48.88"><defs><style>.cls-1{fill:#333;}.cls-2{fill:url(#Gradiente_sem_nome_74);}.cls-3{fill:url(#Gradiente_sem_nome_76);}</style><linearGradient id="Gradiente_sem_nome_74" x1="663.21" y1="384.94" x2="702.93" y2="384.94" gradientUnits="userSpaceOnUse"><stop offset="0" stop-color="silver"/><stop offset="0.48" stop-color="#d7d9da"/><stop offset="1" stop-color="#edf1f2"/></linearGradient><linearGradient id="Gradiente_sem_nome_76" x1="658.63" y1="384.94" x2="707.51" y2="384.94" gradientUnits="userSpaceOnUse"><stop offset="0" stop-color="#edf1f2"/><stop offset="0.52" stop-color="#d7d9da"/><stop offset="1" stop-color="silver"/></linearGradient></defs><title>9</title><circle class="cls-1" cx="24.44" cy="24.99" r="22.91"/><path class="cls-2" d="M683.07,365.08a19.86,19.86,0,1,0,19.86,19.86A19.86,19.86,0,0,0,683.07,365.08Zm-1.65,37.39a2.64,2.64,0,1,1,2.51-2.62A2.47,2.47,0,0,1,681.42,402.47Zm4.07-15.85c-1.86,2.23-2.53,4.09-2.39,6.25l0,1.08h-3.29l-.11-1.1c-.26-2.27.53-4.77,2.62-7.29,1.9-2.26,3-3.89,3-5.78,0-2.16-1.34-3.61-4-3.63a7.51,7.51,0,0,0-4.26,1.3l-1-2.66a11.29,11.29,0,0,1,6.05-1.7c4.84,0,7.06,3,7.06,6.23C689.13,382.16,687.52,384.25,685.49,386.62Z" transform="translate(-658.63 -360.5)"/><path class="cls-3" d="M683.07,360.5a24.44,24.44,0,1,0,24.44,24.44A24.44,24.44,0,0,0,683.07,360.5Zm0,45.05a20.61,20.61,0,1,1,20.61-20.61A20.6,20.6,0,0,1,683.07,405.55Z" transform="translate(-658.63 -360.5)"/></svg>