<svg id="Capa_1" data-name="Capa 1" xmlns="http://www.w3.org/2000/svg" xmlns:xlink="http://www.w3.org/1999/xlink" viewBox="0 0 48.88 48.88"><defs><style>.cls-1{fill:#333;}.cls-2{fill:url(#Gradiente_sem_nome_74);}.cls-3{fill:url(#Gradiente_sem_nome_74-2);}.cls-4{fill:url(#Gradiente_sem_nome_74-3);}.cls-5{fill:url(#Gradiente_sem_nome_74-4);}.cls-6{fill:url(#Gradiente_sem_nome_74-5);}.cls-7{fill:url(#Gradiente_sem_nome_74-6);}.cls-8{fill:url(#Gradiente_sem_nome_76);}</style><linearGradient id="Gradiente_sem_nome_74" x1="23.29" y1="25.2" x2="25.59" y2="25.2" gradientUnits="userSpaceOnUse"><stop offset="0" stop-color="silver"/><stop offset="0.48" stop-color="#d7d9da"/><stop offset="1" stop-color="#edf1f2"/></linearGradient><linearGradient id="Gradiente_sem_nome_74-2" x1="549.92" y1="373.11" x2="552.69" y2="373.11" xlink:href="#Gradiente_sem_nome_74"/><linearGradient id="Gradiente_sem_nome_74-3" x1="17.57" y1="28.93" x2="19.86" y2="28.93" xlink:href="#Gradiente_sem_nome_74"/><linearGradient id="Gradiente_sem_nome_74-4" x1="29.02" y1="27.21" x2="31.31" y2="27.21" xlink:href="#Gradiente_sem_nome_74"/><linearGradient id="Gradiente_sem_nome_74-5" x1="533.04" y1="384.14" x2="553.54" y2="384.14" xlink:href="#Gradiente_sem_nome_74"/><linearGradient id="Gradiente_sem_nome_74-6" x1="522.67" y1="384.94" x2="562.39" y2="384.94" xlink:href="#Gradiente_sem_nome_74"/><linearGradient id="Gradiente_sem_nome_76" x1="518.09" y1="384.94" x2="566.97" y2="384.94" gradientUnits="userSpaceOnUse"><stop offset="0" stop-color="#edf1f2"/><stop offset="0.52" stop-color="#d7d9da"/><stop offset="1" stop-color="silver"/></linearGradient></defs><title>4</title><circle class="cls-1" cx="24.44" cy="24.99" r="22.91"/><rect class="cls-2" x="23.29" y="19.48" width="2.29" height="11.46"/><path class="cls-3" d="M550.53,374.49h2.16l-2.77-2.77v2.17A.6.6,0,0,0,550.53,374.49Z" transform="translate(-518.09 -360.5)"/><rect class="cls-4" x="17.57" y="26.92" width="2.29" height="4.01"/><rect class="cls-5" x="29.02" y="23.49" width="2.29" height="7.45"/><path class="cls-6" d="M548.72,373.89v-3H533.64a.6.6,0,0,0-.6.61V396.8a.6.6,0,0,0,.6.6h19.3a.6.6,0,0,0,.6-.6V375.7h-3A1.81,1.81,0,0,1,548.72,373.89Zm2.4,17.55a.56.56,0,0,1,.57.57.57.57,0,0,1-.57.57H533.93a.58.58,0,0,1-.57-.57.57.57,0,0,1,.57-.57h.58v-4.59a.57.57,0,0,1,.57-.57h3.44a.58.58,0,0,1,.57.57v4.59h1.15v-12a.57.57,0,0,1,.57-.58h3.43a.58.58,0,0,1,.58.58v12H546v-8a.58.58,0,0,1,.58-.58H550a.58.58,0,0,1,.58.58v8Z" transform="translate(-518.09 -360.5)"/><path class="cls-7" d="M542.53,365.08a19.86,19.86,0,1,0,19.86,19.86A19.86,19.86,0,0,0,542.53,365.08Zm12.22,31.72a1.81,1.81,0,0,1-1.81,1.81h-19.3a1.81,1.81,0,0,1-1.81-1.81V371.48a1.81,1.81,0,0,1,1.81-1.81h15.68a.61.61,0,0,1,.43.17l4.82,4.83a.56.56,0,0,1,.18.42Z" transform="translate(-518.09 -360.5)"/><path class="cls-8" d="M542.53,360.5A24.44,24.44,0,1,0,567,384.94,24.44,24.44,0,0,0,542.53,360.5Zm0,45.05a20.61,20.61,0,1,1,20.61-20.61A20.61,20.61,0,0,1,542.53,405.55Z" transform="translate(-518.09 -360.5)"/></svg>