<svg id="Capa_1" data-name="Capa 1" xmlns="http://www.w3.org/2000/svg" xmlns:xlink="http://www.w3.org/1999/xlink" viewBox="0 0 70.31 70.31"><defs><style>.cls-1{fill:url(#Gradiente_sem_nome_74);}.cls-2{fill:url(#Gradiente_sem_nome_76);}.cls-3{fill:#333;}</style><linearGradient id="Gradiente_sem_nome_74" x1="6.59" y1="35.16" x2="63.72" y2="35.16" gradientUnits="userSpaceOnUse"><stop offset="0" stop-color="silver"/><stop offset="0.48" stop-color="#d7d9da"/><stop offset="1" stop-color="#edf1f2"/></linearGradient><linearGradient id="Gradiente_sem_nome_76" x1="606.69" y1="382.74" x2="677" y2="382.74" gradientUnits="userSpaceOnUse"><stop offset="0" stop-color="#edf1f2"/><stop offset="0.52" stop-color="#d7d9da"/><stop offset="1" stop-color="silver"/></linearGradient></defs><title>3</title><circle class="cls-1" cx="35.16" cy="35.16" r="28.57"/><path class="cls-2" d="M641.84,347.58A35.16,35.16,0,1,0,677,382.74,35.16,35.16,0,0,0,641.84,347.58Zm0,64.81a29.65,29.65,0,1,1,29.65-29.65A29.66,29.66,0,0,1,641.84,412.39Z" transform="translate(-606.69 -347.58)"/><path class="cls-3" d="M631,387.75a1.87,1.87,0,1,1-1.87-1.87A1.87,1.87,0,0,1,631,387.75Z" transform="translate(-606.69 -347.58)"/><path class="cls-3" d="M642.17,392.45a2.58,2.58,0,1,1-2.57-2.58A2.57,2.57,0,0,1,642.17,392.45Z" transform="translate(-606.69 -347.58)"/><path class="cls-3" d="M650.13,390.06a1.82,1.82,0,1,1-1.82-1.81A1.82,1.82,0,0,1,650.13,390.06Z" transform="translate(-606.69 -347.58)"/><path class="cls-3" d="M641.41,400.73a1.81,1.81,0,1,1-1.81-1.81A1.81,1.81,0,0,1,641.41,400.73Z" transform="translate(-606.69 -347.58)"/><path class="cls-3" d="M632.84,396.84A1.81,1.81,0,1,1,631,395,1.82,1.82,0,0,1,632.84,396.84Z" transform="translate(-606.69 -347.58)"/><path class="cls-3" d="M649.89,400.75a1.6,1.6,0,1,1-1.6-1.6A1.59,1.59,0,0,1,649.89,400.75Z" transform="translate(-606.69 -347.58)"/><path class="cls-3" d="M655.87,393.27a1.6,1.6,0,1,1-1.6-1.59A1.59,1.59,0,0,1,655.87,393.27Z" transform="translate(-606.69 -347.58)"/><path class="cls-3" d="M662,372.57a3.46,3.46,0,0,1-2.69-1.42,2.39,2.39,0,0,0-1.89-1,2.35,2.35,0,0,0-1.88,1.06,3.27,3.27,0,0,1-5.39,0,2.21,2.21,0,0,0-3.76,0,3.26,3.26,0,0,1-5.38,0,2.38,2.38,0,0,0-1.88-1,2.35,2.35,0,0,0-1.88,1,3.25,3.25,0,0,1-5.37,0,2.2,2.2,0,0,0-3.76,0,3.25,3.25,0,0,1-5.37,0,2.38,2.38,0,0,0-1.88-1V369a3.43,3.43,0,0,1,2.68,1.41,2.21,2.21,0,0,0,3.77,0,3.25,3.25,0,0,1,5.36,0,2.2,2.2,0,0,0,3.76,0,3.26,3.26,0,0,1,5.37,0,2.21,2.21,0,0,0,3.77,0,3.27,3.27,0,0,1,5.38,0,2.21,2.21,0,0,0,3.77,0,3.27,3.27,0,0,1,5.38,0,2.41,2.41,0,0,0,1.89,1.06Z" transform="translate(-606.69 -347.58)"/><path class="cls-3" d="M662,377.53a3.46,3.46,0,0,1-2.69-1.42,2.21,2.21,0,0,0-3.77,0,3.27,3.27,0,0,1-5.39,0,2.2,2.2,0,0,0-3.76,0,3.26,3.26,0,0,1-5.38,0,2.39,2.39,0,0,0-1.88-1.06,2.36,2.36,0,0,0-1.88,1.06,3.25,3.25,0,0,1-5.37,0,2.2,2.2,0,0,0-3.76,0,3.25,3.25,0,0,1-5.37,0,2.39,2.39,0,0,0-1.88-1.06V374a3.43,3.43,0,0,1,2.68,1.41,2.21,2.21,0,0,0,3.77,0,3.25,3.25,0,0,1,5.36,0,2.2,2.2,0,0,0,3.76,0,3.26,3.26,0,0,1,5.37,0,2.21,2.21,0,0,0,3.77,0,3.27,3.27,0,0,1,5.38,0,2.21,2.21,0,0,0,3.77,0,3.27,3.27,0,0,1,5.38,0,2.41,2.41,0,0,0,1.89,1.06Z" transform="translate(-606.69 -347.58)"/><path class="cls-3" d="M662,382.94a3.48,3.48,0,0,1-2.69-1.41,2.21,2.21,0,0,0-3.77,0,3.28,3.28,0,0,1-5.39,0,2.2,2.2,0,0,0-3.76,0,3.27,3.27,0,0,1-5.38,0,2.39,2.39,0,0,0-1.88-1.06,2.36,2.36,0,0,0-1.88,1.06,3.26,3.26,0,0,1-5.37,0,2.2,2.2,0,0,0-3.76,0,3.26,3.26,0,0,1-5.37,0,2.39,2.39,0,0,0-1.88-1.06v-1.1a3.43,3.43,0,0,1,2.68,1.41,2.21,2.21,0,0,0,3.77,0,3.25,3.25,0,0,1,5.36,0,2.2,2.2,0,0,0,3.76,0,3.26,3.26,0,0,1,5.37,0,2.21,2.21,0,0,0,3.77,0,3.27,3.27,0,0,1,5.38,0,2.21,2.21,0,0,0,3.77,0,3.27,3.27,0,0,1,5.38,0,2.41,2.41,0,0,0,1.89,1.06Z" transform="translate(-606.69 -347.58)"/></svg>