<svg id="Capa_1" data-name="Capa 1" xmlns="http://www.w3.org/2000/svg" xmlns:xlink="http://www.w3.org/1999/xlink" viewBox="0 0 48.88 48.88"><defs><style>.cls-1{fill:#333;}.cls-2{fill:url(#Gradiente_sem_nome_74);}.cls-3{fill:url(#Gradiente_sem_nome_76);}</style><linearGradient id="Gradiente_sem_nome_74" x1="634.7" y1="384.94" x2="674.4" y2="384.94" gradientUnits="userSpaceOnUse"><stop offset="0" stop-color="silver"/><stop offset="0.48" stop-color="#d7d9da"/><stop offset="1" stop-color="#edf1f2"/></linearGradient><linearGradient id="Gradiente_sem_nome_76" x1="630.11" y1="384.94" x2="678.99" y2="384.94" gradientUnits="userSpaceOnUse"><stop offset="0" stop-color="#edf1f2"/><stop offset="0.52" stop-color="#d7d9da"/><stop offset="1" stop-color="silver"/></linearGradient></defs><title>8</title><circle class="cls-1" cx="24.44" cy="24.99" r="22.91"/><g id="Glyph"><path class="cls-2" d="M654.55,365.09a19.85,19.85,0,1,0,19.85,19.85A19.88,19.88,0,0,0,654.55,365.09Zm12.08,12.49A11.92,11.92,0,0,1,665.4,379c-1,1-1,1.09-1,1.9a18.29,18.29,0,0,1-1.2,5.34,15.45,15.45,0,0,1-5.85,6.89,14.8,14.8,0,0,1-11.54,1.32,13.31,13.31,0,0,1-3.39-1.57,5.51,5.51,0,0,1,1.44-.14,9.81,9.81,0,0,0,4.72-1.31l.94-.57-1.09-.37a5.33,5.33,0,0,1-3.28-2.92c-.11-.37-.07-.39.91-.39l1,0-.86-.41a5.67,5.67,0,0,1-2.41-2.28,6.09,6.09,0,0,1-.63-2.38,2.23,2.23,0,0,1,.82.2c1.21.44,1.37.34.67-.41a5.14,5.14,0,0,1-1.09-5.26l.3-.85,1.16,1.15a14.25,14.25,0,0,0,8.37,4.12l.88.11,0-.87a5.08,5.08,0,0,1,3.43-5.12,6,6,0,0,1,3.07-.07,7.24,7.24,0,0,1,1.5.78l.86.59,1-.3a9.63,9.63,0,0,0,1.55-.61c.29-.16.56-.25.56-.19a5.15,5.15,0,0,1-1.2,1.9c-.74.8-.53.87,1,.34C666.79,377.24,666.81,377.24,666.63,377.58Z" transform="translate(-630.11 -360.5)"/><path class="cls-3" d="M654.55,360.5A24.44,24.44,0,1,0,679,384.94,24.44,24.44,0,0,0,654.55,360.5Zm0,45.05a20.61,20.61,0,1,1,20.61-20.61A20.6,20.6,0,0,1,654.55,405.55Z" transform="translate(-630.11 -360.5)"/></g></svg>